PathFileType	4	(X/Y/Z)	c:\Git\powerlifing_model_clean\simulations\HC835B\Session1\HC835B_OGR_0005\marker_experimental.trc
DataRate	CameraRate	NumFrames	NumMarkers	Units	OrigDataRate	OrigDataStartFrame	OrigNumFrames
240.000000	240.000000	5	38	mm	240.000000	81	218
Frame#	Time	RPSI			LPSI			RASI			LASI			RTH1			RTH2			RTH3			RTH4			RSK1			RSK2			RSK3			RSK4			RCAL1			RCAL2			RCAL3			RST			RPT			RTN			RFMB			RSMB			RVMB			RFMH			RSMH			RVMH			RPM			LTH1			LTH2			LTH3			LTH4			LSK1			LSK2			LSK3			LSK4			LCAL1			LCAL2			LCAL3			LFMH			LVMH			
		X1	Y1	Z1	X2	Y2	Z2	X3	Y3	Z3	X4	Y4	Z4	X5	Y5	Z5	X6	Y6	Z6	X7	Y7	Z7	X8	Y8	Z8	X9	Y9	Z9	X10	Y10	Z10	X11	Y11	Z11	X12	Y12	Z12	X13	Y13	Z13	X14	Y14	Z14	X15	Y15	Z15	X16	Y16	Z16	X17	Y17	Z17	X18	Y18	Z18	X19	Y19	Z19	X20	Y20	Z20	X21	Y21	Z21	X22	Y22	Z22	X23	Y23	Z23	X24	Y24	Z24	X25	Y25	Z25	X26	Y26	Z26	X27	Y27	Z27	X28	Y28	Z28	X29	Y29	Z29	X30	Y30	Z30	X31	Y31	Z31	X32	Y32	Z32	X33	Y33	Z33	X34	Y34	Z34	X35	Y35	Z35	X36	Y36	Z36	X37	Y37	Z37	X38	Y38	Z38	

82	0.3375	497.608612060547	1208.78076171875	-844.9228515625002	388.2262573242189	1206.100341796875	-841.7103271484377	551.3878173828126	1108.874145507813	-1034.68359375	318.8194274902344	1138.225952148438	-1035.1650390625	623.3570556640626	866.572204589844	-853.2385253906252	613.7029418945314	832.5623779296877	-903.0318603515627	610.8812255859376	783.413269042969	-842.1526489257815	590.5320434570314	752.1408081054689	-887.2603149414065	574.1041259765626	442.8269042968751	-540.5700683593751	570.8802490234376	395.2618408203126	-579.6757202148439	568.9884643554689	388.5096435546876	-519.1195678710939	554.1004638671876	344.1515197753907	-556.5594482421876	509.0154113769532	331.3840332031251	-403.6834716796876	466.9151611328126	315.3404541015626	-383.4474182128907	528.4826660156251	307.4911804199219	-365.7859497070313	456.8889465332032	262.4815368652344	-429.894744873047	551.7022094726564	254.7655334472657	-395.6440429687501	473.6097106933595	219.5055541992188	-468.6146240234376	470.049285888672	183.1741943359375	-464.3452758789064	522.8021850585939	175.1835174560547	-478.8575744628907	551.3081665039064	202.4410858154297	-390.184783935547	454.3158264160157	121.6322402954102	-459.8834533691407	508.9317016601564	107.7663497924805	-467.9974365234376	557.5819091796876	125.4106521606446	-411.8082885742189	494.3807678222657	55.53900146484376	-488.8270874023439	257.7892150878907	866.2117309570315	-1044.011840820313	260.7178955078126	879.624206542969	-1103.501220703125	265.1640930175782	798.7753906250002	-1095.951049804688	283.9053344726563	813.0396728515627	-1153.164184570313	309.2838745117188	389.4567871093751	-998.7751464843752	304.6480407714844	357.4264831542969	-1041.121948242188	313.5087585449219	332.8585205078126	-998.5159301757815	323.8866882324219	303.4829101562501	-1045.134155273438	375.7902221679688	203.5930938720704	-900.7454833984377	347.9266052246094	164.0816802978516	-894.9798583984377	406.4713745117189	167.2508697509766	-899.5737304687502	410.6048278808595	131.9917144775391	-1117.173828125	308.9060668945313	105.2319869995117	-1075.59521484375	
83	0.3416666666666667	497.5799255371095	1210.672485351563	-860.206726074219	388.2007446289064	1207.697021484375	-856.9656982421877	551.3679199218751	1110.331298828125	-1049.398681640625	318.5108032226563	1140.005859375	-1050.569091796875	623.2636108398439	867.576354980469	-867.8631591796877	613.8041992187501	833.575622558594	-917.6920166015627	611.6832885742189	784.725280761719	-856.9447021484377	590.6894531250001	753.0470581054689	-901.9946289062502	575.4958496093751	448.2628173828126	-551.7042846679689	572.0622558593751	399.7840270996095	-589.6148071289064	570.4835815429689	394.4469604492189	-528.8811645507814	555.2743530273439	349.0934753417969	-565.2598266601564	510.0205078125001	339.7541809082032	-411.8390197753907	468.0639953613282	323.7335815429688	-391.2527160644532	529.6844482421876	316.8433532714844	-373.3309936523438	458.642059326172	269.8667297363282	-436.6363220214845	553.5570678710939	263.8860168457032	-402.2200927734376	475.7083129882814	226.3208160400391	-474.1474914550782	472.7243652343751	190.1218872070313	-469.621551513672	525.5863647460939	182.5280303955078	-484.2219238281251	553.7114257812501	211.6818847656251	-395.7886352539064	457.7877807617189	128.5350952148438	-464.1383666992189	512.5661621093751	115.0263824462891	-471.959442138672	560.8764648437501	134.2938842773438	-416.0166625976564	498.5682373046876	62.25242614746095	-491.6131896972657	259.4072875976563	865.3922119140627	-1056.660766601563	262.0753479003907	878.5456542968752	-1116.179809570313	267.0130920410157	797.5361938476565	-1108.320434570313	285.4941101074219	811.7854614257815	-1165.577026367188	310.3833618164063	382.7177734375001	-1020.507202148438	305.6167297363282	352.5620422363282	-1063.904541015625	314.9545898437501	326.1924133300782	-1022.62841796875	325.0544128417969	298.8630065917969	-1070.2099609375	377.2783508300782	192.7731933593751	-929.9997558593752	349.2597351074219	153.228988647461	-925.6887207031252	407.9364013671876	156.426742553711	-930.4039306640627	411.5129699707032	130.3023223876953	-1149.343139648438	309.8283996582032	101.9962539672852	-1108.603759765625	
84	0.3458333333333333	497.5758361816407	1212.3935546875	-875.446960449219	388.2377319335939	1209.104125976563	-872.1697387695315	551.3958129882814	1111.728759765625	-1064.076171875	318.3084716796876	1141.548583984375	-1065.507690429688	623.0906982421876	868.1709594726565	-882.888854980469	613.6412353515626	834.2235107421877	-932.7869262695315	611.5632934570314	785.281677246094	-872.0969848632815	590.5510864257814	753.7053833007814	-917.1545410156252	576.6562500000001	453.8161926269532	-562.7991943359376	573.1901855468751	404.4902343750001	-599.5270385742189	571.8613891601564	400.7081298828126	-538.5915527343751	556.5020141601564	354.3610534667969	-573.8979492187501	510.9656677246095	348.2438354492188	-419.8953552246095	469.1744079589845	332.1480712890626	-399.106170654297	530.5651245117189	325.8797302246094	-381.0362854003907	460.3461303710939	277.4031677246094	-443.5022277832032	555.3706054687501	273.0579528808594	-408.940155029297	477.9309997558595	233.3881530761719	-480.3287963867189	475.3474121093751	197.2359619140626	-475.2927551269532	528.3223266601564	190.0109252929688	-489.5052185058595	556.0917968750001	220.9822082519532	-401.6920776367189	461.132537841797	135.6843414306641	-468.749237060547	516.2524414062501	122.7154846191407	-476.1846008300782	564.2302856445314	143.4168090820313	-420.5913391113282	502.7462463378907	69.34878540039064	-495.0837707519532	260.8725891113282	864.132019042969	-1069.068603515625	263.4104614257813	876.978698730469	-1128.684204101563	268.7865905761719	796.1804809570315	-1120.345458984375	287.1483459472657	810.0913696289065	-1177.773193359375	311.5776977539063	376.3722229003907	-1042.4072265625	306.7305297851563	347.8739624023438	-1086.8154296875	316.0875854492188	319.8118591308594	-1046.573608398438	326.0895385742188	294.3668823242188	-1095.069213867188	378.2464599609376	182.0256958007813	-960.0562133789065	350.5885620117188	142.9197082519532	-956.559753417969	409.3560791015626	146.2646179199219	-961.369567871094	412.521697998047	129.05517578125	-1181.213989257813	310.7729797363282	99.11492156982425	-1141.287353515625	
85	0.35	497.616180419922	1213.823974609375	-890.6492919921877	388.2975463867189	1210.303833007813	-887.3370361328127	551.5560302734376	1113.06298828125	-1078.77880859375	318.0449829101563	1142.816162109375	-1080.349975585938	622.9201660156251	868.4071044921877	-898.3237304687502	613.3301391601564	834.5434570312502	-948.200378417969	611.1703491210939	785.2845458984377	-887.628356933594	590.1498413085939	754.0158081054689	-932.672058105469	577.6629028320314	459.5303344726564	-573.9582519531251	574.0681152343751	409.1978149414064	-609.6129150390626	573.0825195312501	407.1465454101564	-548.4769897460939	557.7525634765626	359.8003845214844	-582.6463012695314	511.8769836425782	356.8879394531251	-428.0595092773439	470.3078918457032	340.6847229003907	-406.9824218750001	531.9767456054689	335.6302185058594	-388.8853759765626	461.9544067382814	285.0675964355469	-450.5088500976564	557.1545410156251	282.3284301757813	-415.9498291015626	480.0224914550782	240.8964843750001	-487.2539978027345	477.9123535156251	204.596664428711	-481.0093688964845	530.9209594726564	197.7460174560547	-494.9895019531251	558.4319458007814	230.3742370605469	-407.8924865722657	464.6256103515626	142.9489135742188	-473.5921630859376	519.6176757812501	130.4453887939453	-480.8043212890626	567.6112670898439	152.68798828125	-425.6434020996095	506.7898864746095	76.87532806396486	-499.0412597656251	262.0834960937501	862.6724853515627	-1081.309814453125	264.6844787597657	875.1414794921877	-1141.040405273438	270.3269958496094	794.288024902344	-1132.178588867188	288.7176208496094	807.9763183593752	-1189.640625	309.7926330566407	371.5782470703126	-1062.939819335938	307.5630798339844	343.5479125976563	-1109.569702148438	317.1951904296876	314.2529602050782	-1070.212768554688	327.2986755371094	290.4891662597657	-1120.016479492188	379.7125549316407	172.537841796875	-989.4734497070315	351.9602355957032	133.2286376953125	-987.4573974609377	410.8376464843751	136.8862915039063	-992.2987060546877	413.6085510253907	128.2115631103516	-1212.720458984375	311.9929199218751	96.63946533203128	-1173.743896484375	
86	0.3541666666666667	497.7017517089845	1215.007568359375	-905.873962402344	388.388885498047	1211.29345703125	-902.4509887695315	551.7637329101564	1114.29541015625	-1093.473022460938	317.8584289550782	1143.617797851563	-1094.931396484375	622.6617431640626	868.2349243164065	-914.082458496094	612.7536621093751	834.5073242187502	-964.0710449218752	610.8462524414064	785.209655761719	-903.5596923828127	589.4325561523439	753.9797363281251	-948.6009521484377	578.4724121093751	465.4078063964845	-585.3232421875001	575.1937255859376	414.1639404296876	-619.6613159179689	574.2076416015626	413.6123657226564	-558.4966430664064	558.9661865234376	365.5308227539063	-591.5003051757814	512.7756347656251	365.6809997558594	-436.2130432128907	471.2126770019532	349.3367919921876	-415.1864318847657	533.2410888671876	345.1836853027344	-396.938446044922	463.5625000000001	292.8059997558594	-457.790740966797	558.8505249023439	291.7467956542969	-423.2775268554689	482.134490966797	248.3343200683594	-493.8353271484376	480.4642333984376	212.0845336914063	-487.0615234375001	533.5122680664064	205.6263427734376	-501.012664794922	560.7554931640626	239.9496765136719	-414.419158935547	467.8530273437501	150.4622039794922	-478.9306945800782	522.9611206054689	138.3658752441407	-485.9014587402345	570.8591308593751	162.0772094726563	-431.117645263672	510.9071044921876	84.51275634765626	-503.3628234863282	263.0140991210938	860.9434204101565	-1093.4853515625	265.7921142578126	872.851745605469	-1153.304931640625	271.6936035156251	792.2834472656252	-1143.652709960938	290.2048950195313	805.5271606445315	-1201.275634765625	310.9007873535157	365.7597351074219	-1084.59375	308.7208557128907	339.2413330078126	-1132.422119140625	318.4932861328126	308.7995910644532	-1094.245971679688	328.3377990722657	286.8874511718751	-1144.7900390625	381.0625915527344	163.6858825683594	-1018.903137207031	353.4090881347657	124.3377914428711	-1018.239868164063	412.3122863769532	128.3069458007813	-1023.150817871094	414.8669738769532	127.7810287475586	-1243.725952148438	313.3856201171876	94.3933563232422	-1205.845825195313	
